<svg class="tds-icon tds-icon-logo-we-robot" viewBox="0 0 316 111" xmlns="http://www.w3.org/2000/svg">
  <path fill="white" d="M130.75 111h46.817l7.683-12.274V83.922h-2.246l2.246-3.592V65.54h-54.496V111zm8.671-36.76h37.153v3.595l-3.806 6.091h-33.347zm0 18.382h37.153v3.604l-3.806 6.083h-33.351v-9.687zM65.336 111h54.574V65.54H65.336zm8.671-36.76h37.232v28.069H74.007zM196.09 111h54.574V65.54H196.09zm8.671-36.76h37.232v28.069h-37.232zm56.738-8.696v8.695h22.915v36.765h8.671V74.239H316v-8.696zM54.496 45.46V0h-8.671v36.765H31.582V0H22.91v36.765H8.672V0H0v45.46zm65.341-8.696H74.012v-9.687h45.825v-8.695H74.012V8.696h45.825V0H65.34v45.46h54.497zm25.255 0h-8.671v9.179h-5.745v8.695h14.416zm-90.596 43.57v-14.79H0v45.46h8.672v-18.37h32.561l5.745 18.37h9.088l-6.911-22.108 5.346-8.561zm-8.671-2.5-3.807 6.1H8.672v-9.696h37.153z"></path>
</svg>
